<?xml version="1.0" encoding="utf-8"?>
<svg version="1.0" xmlns="http://www.w3.org/2000/svg" width="600.000000pt" height="600.000000pt" viewBox="134 110 330 330" preserveAspectRatio="xMidYMid meet">
  <g transform="translate(0.000000,600.000000) scale(0.100000,-0.100000)" fill="#c4ab79" stroke="none">
    <path d="M2991 4829 c-1 -20 -7 -54 -15 -76 -9 -27 -11 -45 -4 -57 8 -13 3 -24 -23 -51 -52 -53 -57 -80 -58 -292 -1 -165 -3 -193 -16 -193 -8 0 -15 4 -15 9 0 5 -5 22 -11 38 l-11 28 -13 -35 c-8 -19 -14 -63 -14 -98 -1 -35 -6 -73 -13 -85 -7 -12 -13 -35 -14 -52 -1 -16 -4 -82 -8 -145 -4 -74 -10 -119 -18 -125 -7 -5 -14 -25 -15 -42 -1 -18 -9 -53 -18 -78 -8 -25 -15 -55 -15 -65 0 -11 -3 -20 -8 -20 -8 0 -32 -71 -32 -95 0 -8 -4 -15 -10 -15 -5 0 -10 -7 -10 -15 0 -8 -8 -19 -19 -24 -10 -6 -21 -25 -25 -42 -8 -43 1 -50 15 -11 11 31 12 32 75 32 40 0 64 4 64 11 0 7 -18 10 -50 7 -28 -1 -50 -1 -50 2 1 17 21 28 62 34 26 4 50 11 53 17 8 12 -15 11 -54 -2 -18 -6 -35 -9 -38 -5 -3 3 2 26 11 50 17 45 23 49 83 61 51 10 49 45 -3 45 -24 0 -16 -20 9 -21 21 -1 21 -1 -3 -9 -47 -15 -51 -12 -48 28 3 37 3 37 51 40 26 2 47 8 47 14 0 7 -15 9 -41 5 -38 -5 -41 -4 -35 16 3 12 6 32 6 45 0 19 5 22 38 22 20 0 44 5 52 11 11 8 4 9 -28 7 -42 -4 -42 -3 -37 23 4 15 8 67 9 116 l3 88 44 18 44 18 -42 -5 c-37 -3 -43 -1 -43 15 0 16 7 19 45 19 27 0 45 5 45 11 0 8 -14 10 -40 6 -35 -4 -40 -3 -36 11 3 10 8 53 12 96 5 63 9 75 17 60 6 -10 13 -37 15 -59 5 -51 12 -59 12 -12 0 20 5 39 10 42 6 4 10 -13 10 -44 0 -39 -4 -51 -17 -54 -10 -3 -2 -5 17 -6 19 0 30 3 24 7 -17 10 -12 486 5 527 14 35 59 85 77 85 6 0 25 -15 42 -34 48 -55 55 -109 50 -362 l-5 -224 26 1 c17 1 20 3 9 6 -14 3 -18 15 -18 49 0 24 5 44 10 44 6 0 10 -18 10 -40 0 -22 5 -40 10 -40 6 0 10 24 10 53 0 65 14 93 24 47 3 -18 6 -61 6 -96 l0 -63 -35 6 c-23 4 -35 2 -35 -6 0 -6 18 -11 45 -11 38 0 45 -3 45 -19 0 -17 -5 -18 -42 -14 -29 4 -39 3 -34 -5 4 -7 20 -12 36 -12 38 0 44 -12 46 -92 1 -37 5 -87 8 -110 l7 -43 -48 2 c-36 2 -43 1 -28 -6 11 -5 36 -10 56 -10 35 -1 36 -2 47 -53 6 -29 15 -72 20 -96 8 -38 8 -42 -7 -36 -9 3 -27 8 -41 10 -23 4 -22 3 5 -11 17 -8 38 -14 48 -15 9 0 17 -2 17 -4 0 -1 11 -34 25 -72 14 -38 25 -69 25 -70 0 -1 -22 1 -50 4 -33 3 -50 1 -50 -7 0 -7 23 -11 65 -11 55 0 65 -3 65 -17 0 -10 5 -25 11 -33 8 -11 9 -6 5 20 -4 19 -12 40 -19 45 -18 16 -34 47 -42 85 -4 19 -13 44 -20 55 -15 24 -35 103 -42 165 -3 25 -11 50 -19 56 -14 11 -19 67 -28 274 0 19 -5 38 -10 42 -5 3 -12 44 -16 90 -4 45 -12 94 -17 108 -10 24 -11 24 -23 -18 -25 -83 -35 -43 -40 169 -5 185 -7 208 -27 244 -12 22 -31 46 -42 52 -15 10 -19 20 -15 40 2 16 -2 60 -10 98 -11 54 -14 62 -15 34z m14 -112 c0 -26 -20 -25 -23 2 -3 16 1 22 10 19 7 -3 13 -12 13 -21z"/>
    <path d="M2994 4520 c0 -52 1 -74 3 -47 2 26 2 68 0 95 -2 26 -3 4 -3 -48z"/>
    <path d="M2938 4408 c-2 -79 -2 -145 0 -147 7 -12 10 17 17 147 5 98 4 142 -3 142 -7 0 -12 -51 -14 -142z"/>
    <path d="M3034 4418 c4 -73 12 -137 18 -143 8 -7 9 -4 4 8 -3 10 -6 75 -6 143 0 86 -3 124 -11 124 -9 0 -10 -36 -5 -132z"/>
    <path d="M2223 4360 c0 -36 2 -50 4 -32 2 17 2 47 0 65 -2 17 -4 3 -4 -33z"/>
    <path d="M2992 4390 c0 -19 2 -27 5 -17 2 9 2 25 0 35 -3 9 -5 1 -5 -18z"/>
    <path d="M2080 4385 c0 -13 45 -95 52 -95 5 0 -3 23 -17 50 -22 44 -35 60 -35 45z"/>
    <path d="M2335 4340 c-14 -29 -24 -54 -21 -57 2 -3 17 18 31 47 14 29 24 54 21 57 -2 3 -17 -18 -31 -47z"/>
    <path d="M3939 4327 c-19 -12 -41 -36 -49 -53 -14 -29 -18 -31 -57 -26 -50 5 -110 -26 -119 -63 -6 -23 -11 -24 -92 -28 -48 -1 -22 -3 58 -3 80 0 121 1 93 3 -29 2 -53 7 -53 12 0 13 54 58 78 66 25 7 92 -11 92 -26 0 -5 5 -9 11 -9 8 0 8 4 -1 15 -25 31 20 98 77 114 76 21 174 -45 158 -107 -5 -22 -5 -23 20 -6 39 25 112 14 144 -23 l25 -28 -45 -6 c-24 -3 15 -6 86 -5 75 0 96 1 50 3 -77 4 -81 5 -97 34 -24 42 -82 65 -130 52 -33 -9 -38 -8 -38 7 0 24 -36 67 -70 85 -43 22 -101 19 -141 -8z"/>
    <path d="M2000 4285 c24 -24 46 -42 49 -40 6 7 -70 85 -83 85 -6 0 10 -20 34 -45z"/>
    <path d="M2425 4280 c-22 -22 -35 -40 -29 -40 13 0 79 68 73 75 -3 2 -23 -13 -44 -35z"/>
    <path d="M2981 4270 c-7 -25 -16 -58 -21 -74 -6 -16 -10 -43 -9 -60 0 -26 2 -23 14 19 28 104 29 104 55 24 30 -93 39 -73 10 23 -35 118 -36 120 -49 68z"/>
    <path d="M2138 4219 c-39 -20 -88 -82 -88 -109 1 -8 10 2 21 23 22 42 78 83 127 93 63 13 138 -31 175 -101 14 -27 16 -28 17 -8 0 26 -51 88 -91 109 -39 20 -117 17 -161 -7z"/>
    <path d="M1880 4211 c0 -4 21 -17 47 -27 27 -11 52 -21 57 -23 5 -2 6 1 2 7 -6 10 -90 52 -102 52 -2 0 -4 -4 -4 -9z"/>
    <path d="M2508 4198 c-27 -11 -48 -24 -48 -29 0 -4 23 1 50 13 28 11 50 25 50 29 0 5 -1 9 -2 8 -2 0 -24 -10 -50 -21z"/>
    <path d="M2981 4128 c-7 -26 -11 -52 -8 -60 3 -7 6 -2 6 12 1 14 5 31 10 39 6 10 11 6 19 -15 8 -22 11 -24 11 -9 0 11 -6 33 -13 50 l-12 29 -13 -46z"/>
    <path d="M2420 4069 c-25 -5 -68 -16 -96 -25 -47 -15 -58 -15 -130 0 -157 33 -389 30 -443 -5 -12 -8 -9 -9 14 -4 17 3 83 8 149 12 143 7 245 -6 409 -53 128 -37 136 -38 122 -26 -8 7 -88 34 -140 46 -25 6 98 38 167 43 43 3 75 10 72 14 -6 11 -64 10 -124 -2z"/>
    <path d="M3040 4056 c0 -20 -85 -23 -94 -3 -4 8 -5 7 -4 -3 1 -14 -3 -28 -23 -78 -5 -13 -9 -69 -9 -125 0 -61 -6 -120 -14 -147 -28 -88 -66 -240 -66 -264 0 -14 -5 -38 -11 -53 -37 -91 -40 -103 -29 -103 6 0 10 9 10 20 0 11 4 20 9 20 5 0 13 16 18 36 l8 37 153 -2 c102 -2 152 1 152 8 0 7 -51 11 -150 11 l-150 0 6 28 c3 15 8 34 11 42 6 17 17 59 36 145 l14 60 76 3 c45 2 77 7 77 13 0 7 -26 9 -69 7 l-68 -3 5 115 c2 63 9 121 14 128 6 6 30 12 53 12 23 0 47 -6 52 -12 6 -7 13 -56 16 -109 7 -110 97 -482 113 -466 4 3 -23 124 -46 207 -43 155 -51 200 -49 285 2 87 -2 110 -22 147 -5 10 -6 24 -3 32 3 8 1 17 -5 21 -6 3 -11 -1 -11 -9z m8 -54 c6 -9 12 -22 12 -29 0 -11 -4 -11 -21 -2 -12 6 -39 9 -60 6 -45 -6 -53 12 -17 37 25 18 67 12 86 -12z"/>
    <path d="M3759 3890 c-19 -10 -40 -30 -46 -43 l-12 -25 -38 19 c-40 21 -88 25 -98 9 -4 -6 9 -10 32 -10 21 0 55 -8 76 -19 35 -18 37 -18 42 0 8 25 62 69 86 69 10 0 19 5 19 10 0 15 -21 11 -61 -10z"/>
    <path d="M2980 3876 c-13 -34 -13 -126 0 -126 5 0 11 28 13 63 l3 62 2 -62 c1 -39 6 -63 13 -63 15 0 7 126 -9 142 -8 8 -14 5 -22 -16z"/>
    <path d="M2837 3873 c-11 -10 -8 -121 3 -128 6 -4 10 20 10 64 0 71 -1 77 -13 64z"/>
    <path d="M3139 3878 c-7 -12 -4 -128 3 -128 4 0 8 29 8 65 0 54 -4 76 -11 63z"/>
    <path d="M3962 3785 c-28 -24 -31 -24 -61 -9 -18 9 -39 13 -49 9 -13 -6 -10 -9 15 -15 18 -4 40 -13 48 -20 13 -11 20 -9 43 13 15 14 38 30 52 36 23 9 24 10 3 10 -12 1 -35 -10 -51 -24z"/>
    <path d="M1861 3750 c-4 -8 -10 -52 -14 -108 -4 -42 -11 -60 -33 -83 l-29 -30 -3 -180 c-2 -102 1 -179 6 -179 5 0 7 56 4 129 -6 167 2 216 38 253 26 25 32 27 50 16 43 -27 50 -63 50 -274 0 -179 7 -226 23 -159 3 11 5 -1 6 -27 1 -30 -3 -48 -11 -48 -7 0 -5 -7 4 -17 11 -13 16 -42 17 -103 1 -47 9 -110 17 -140 9 -30 18 -64 21 -75 7 -29 42 -74 43 -55 0 9 -4 20 -8 25 -30 34 -66 221 -61 309 2 23 0 46 -4 52 -3 6 -7 38 -8 72 -2 58 -11 78 -22 50 -3 -7 -6 65 -6 160 -1 190 -6 210 -60 250 -31 22 -40 42 -21 42 6 0 10 -7 10 -16 0 -8 4 -13 9 -9 10 6 9 39 -2 65 -3 8 -8 31 -10 50 -2 19 -5 33 -6 30z"/>
    <path d="M4150 3706 c0 -25 -4 -46 -9 -46 -11 0 -9 -39 2 -57 5 -7 -1 -17 -13 -23 -43 -23 -50 -58 -50 -242 0 -98 -4 -167 -9 -160 -12 20 -21 -9 -21 -67 0 -26 -2 -50 -5 -53 -3 -3 -7 -41 -9 -86 -2 -44 -7 -85 -10 -91 -9 -14 -63 -14 -72 0 -4 7 -12 -1 -20 -20 -10 -23 -19 -31 -39 -31 -14 0 -25 -5 -25 -11 0 -7 10 -9 25 -5 14 4 25 4 25 1 0 -3 -15 -34 -32 -68 -43 -82 -44 -85 -21 -64 17 15 40 59 71 138 8 20 20 28 48 32 21 4 39 5 40 4 5 -6 -28 -112 -46 -149 -23 -48 -24 -52 -9 -42 14 9 54 99 63 144 4 19 11 78 16 130 6 72 13 97 26 107 16 12 16 13 1 13 -14 0 -17 9 -17 48 1 43 2 45 15 28 12 -16 14 7 17 183 l3 201 30 30 c29 29 31 29 54 14 44 -31 51 -69 51 -266 0 -122 4 -178 10 -168 7 11 10 4 10 -27 0 -28 -4 -43 -12 -43 -7 0 -5 -5 5 -11 14 -8 17 -25 17 -99 l0 -90 -87 0 c-49 0 -95 -5 -103 -10 -10 -7 17 -10 86 -10 l101 0 7 -42 c4 -23 11 -47 15 -53 5 -5 11 -29 15 -52 l6 -43 -137 -1 c-85 -1 -128 -4 -113 -9 14 -4 80 -8 148 -9 l122 -1 0 -24 c0 -14 5 -28 10 -31 6 -4 10 10 10 33 0 25 -5 42 -14 45 -7 3 -17 27 -21 54 -4 26 -12 54 -17 61 -6 7 -12 77 -14 161 -3 174 -13 269 -25 250 -5 -8 -9 61 -9 163 l0 177 -32 37 c-19 21 -32 46 -31 58 1 12 0 15 -3 9 -9 -20 -24 -15 -24 6 0 15 5 18 23 14 18 -5 20 -3 10 8 -7 7 -13 30 -13 50 0 21 -4 41 -10 44 -6 4 -10 -12 -10 -39z"/>
    <path d="M2780 3640 c0 -5 14 -10 30 -10 17 0 30 5 30 10 0 6 -13 10 -30 10 -16 0 -30 -4 -30 -10z"/>
    <path d="M2920 3640 c0 -6 32 -10 75 -10 43 0 75 4 75 10 0 6 -32 10 -75 10 -43 0 -75 -4 -75 -10z"/>
    <path d="M3145 3640 c3 -5 19 -10 36 -10 16 0 29 5 29 10 0 6 -16 10 -36 10 -21 0 -33 -4 -29 -10z"/>
    <path d="M2910 3590 c0 -6 37 -10 90 -10 53 0 90 4 90 10 0 6 -37 10 -90 10 -53 0 -90 -4 -90 -10z"/>
    <path d="M3160 3590 c0 -5 16 -10 36 -10 21 0 33 4 29 10 -3 6 -19 10 -36 10 -16 0 -29 -4 -29 -10z"/>
    <path d="M2896 3523 c-3 -8 -6 -16 -6 -18 0 -3 47 -4 105 -4 59 1 105 5 105 10 0 14 -16 18 -112 23 -70 3 -88 1 -92 -11z m97 -10 c-7 -2 -19 -2 -25 0 -7 3 -2 5 12 5 14 0 19 -2 13 -5z"/>
    <path d="M3174 3528 c-3 -4 12 -8 32 -8 21 0 34 3 31 7 -10 9 -58 10 -63 1z"/>
    <path d="M1854 3411 c1 -55 4 -103 9 -107 4 -4 7 41 7 99 0 59 -4 107 -8 107 -5 0 -8 -45 -8 -99z"/>
    <path d="M4150 3405 c0 -58 3 -105 8 -105 4 0 7 47 8 105 0 58 -3 105 -8 105 -4 0 -8 -47 -8 -105z"/>
    <path d="M1821 3480 c-1 -3 -5 -63 -8 -135 -3 -96 -2 -127 6 -119 8 7 11 52 8 135 -1 68 -4 122 -6 119z"/>
    <path d="M1890 3373 c0 -60 5 -115 10 -123 7 -10 10 25 10 108 0 75 -4 122 -10 122 -6 0 -10 -42 -10 -107z"/>
    <path d="M4111 3348 c1 -83 4 -122 9 -103 12 46 12 235 0 235 -6 0 -10 -50 -9 -132z"/>
    <path d="M4191 3368 c0 -64 3 -119 7 -122 5 -3 7 43 5 102 -6 150 -10 158 -12 20z"/>
    <path d="M2885 3450 c-4 -6 37 -10 115 -10 78 0 119 4 115 10 -4 6 -53 10 -115 10 -62 0 -111 -4 -115 -10z"/>
    <path d="M2720 3430 c0 -12 59 -10 66 2 3 4 -11 8 -30 8 -20 0 -36 -5 -36 -10z"/>
    <path d="M3200 3430 c0 -5 16 -10 36 -10 21 0 33 4 29 10 -3 6 -19 10 -36 10 -16 0 -29 -4 -29 -10z"/>
    <path d="M2156 3370 c-5 -25 -9 -58 -10 -75 -1 -16 -9 -41 -19 -55 -9 -13 -16 -36 -16 -50 1 -20 2 -21 6 -5 8 30 34 65 49 65 31 0 42 -43 46 -192 l5 -148 -54 0 -54 0 5 55 c5 67 -9 82 -18 18 -7 -50 -6 -142 1 -105 4 20 10 22 68 22 l64 0 6 -47 c3 -27 10 -66 15 -88 7 -35 8 -32 6 26 -2 37 -5 70 -8 75 -12 21 -20 97 -23 218 -3 112 -7 133 -24 157 -13 17 -18 35 -14 46 6 15 4 16 -9 5 -11 -9 -18 -10 -23 -2 -10 16 4 30 22 23 11 -4 14 -3 9 5 -4 6 -10 31 -15 54 l-7 43 -8 -45z"/>
    <path d="M3830 3376 c0 -19 -4 -46 -10 -60 -6 -17 -6 -27 1 -32 6 -4 2 -16 -12 -30 -21 -22 -24 -38 -31 -172 -4 -81 -12 -167 -17 -192 -16 -75 -23 -167 -12 -150 6 8 11 34 11 56 0 23 3 56 6 73 l7 31 69 0 c58 0 69 -3 65 -15 -4 -8 -1 -17 5 -21 7 -5 9 4 4 27 -3 19 -8 93 -12 164 -6 156 -9 170 -35 196 -14 14 -17 24 -11 32 5 7 6 21 1 32 -4 11 -8 37 -8 58 -1 46 -21 50 -21 3z m20 -76 c0 -11 -4 -20 -10 -20 -5 0 -10 9 -10 20 0 11 5 20 10 20 6 0 10 -9 10 -20z m14 -69 c18 -20 21 -41 30 -228 l5 -93 -59 0 -58 0 4 108 c7 166 10 191 29 212 22 25 28 25 49 1z"/>
    <path d="M3830 3140 c0 -33 4 -60 10 -60 6 0 10 27 10 60 0 33 -4 60 -10 60 -6 0 -10 -27 -10 -60z"/>
    <path d="M3808 3167 c-13 -30 -9 -176 3 -155 5 10 9 53 7 95 -2 47 -6 71 -10 60z"/>
    <path d="M3863 3100 c0 -47 2 -66 4 -42 2 23 2 61 0 85 -2 23 -4 4 -4 -43z"/>
    <path d="M3820 2998 c-7 -29 -15 -60 -18 -68 -3 -11 -2 -12 6 -5 6 6 15 28 20 50 9 40 14 37 26 -17 4 -16 11 -28 16 -28 5 0 3 19 -5 41 -8 23 -15 50 -15 60 0 37 -16 18 -30 -33z"/>
    <path d="M3240 3390 c20 -13 53 -13 45 0 -3 6 -18 10 -33 10 -21 0 -24 -2 -12 -10z"/>
    <path d="M2830 3330 c0 -6 28 -10 65 -10 37 0 65 4 65 10 0 6 -28 10 -65 10 -37 0 -65 -4 -65 -10z"/>
    <path d="M3030 3330 c0 -6 30 -10 71 -10 44 0 68 4 64 10 -3 6 -35 10 -71 10 -36 0 -64 -4 -64 -10z"/>
    <path d="M2990 3313 c0 -28 -40 -140 -93 -262 l-41 -95 -11 34 c-15 43 -26 26 -16 -23 12 -51 -8 -77 -58 -77 l-38 0 -7 -52 c-9 -79 -6 -237 4 -213 5 11 9 71 9 133 l1 112 34 0 c25 0 40 7 55 26 12 15 21 33 21 41 0 8 4 12 9 9 9 -6 86 162 115 252 10 28 19 52 20 52 2 0 13 -28 26 -62 48 -136 102 -249 116 -244 9 4 14 -2 14 -18 0 -31 30 -56 68 -56 32 0 32 0 32 -52 0 -69 12 -219 17 -214 2 2 5 72 6 155 2 121 5 154 17 161 22 14 11 16 -50 9 -30 -3 -45 -6 -33 -7 12 -1 24 -8 26 -14 4 -10 6 -10 6 0 1 6 8 12 17 12 9 0 14 -6 12 -12 -6 -16 -77 -23 -91 -9 -5 5 -10 35 -10 65 0 62 -11 73 -22 24 l-7 -33 -31 64 c-16 35 -50 121 -74 190 -23 69 -43 116 -43 104z"/>
    <path d="M2655 3253 c-38 -8 -87 -12 -107 -9 -37 4 -38 3 -38 -29 0 -19 -4 -36 -9 -39 -4 -3 -11 -26 -13 -50 -3 -25 -22 -80 -42 -122 -40 -84 -41 -88 -25 -78 16 9 66 118 80 175 l13 49 103 0 c62 0 103 4 103 10 0 6 -40 10 -101 10 -99 0 -100 0 -93 23 3 12 8 23 9 25 2 2 48 8 104 14 90 10 117 19 94 31 -5 2 -39 -3 -78 -10z"/>
    <path d="M2770 3233 c0 -18 5 -33 10 -33 6 0 10 11 10 25 0 24 2 25 75 25 41 0 75 3 75 8 0 4 -38 7 -85 7 l-85 0 0 -32z"/>
    <path d="M3044 3258 c-3 -4 30 -8 73 -7 89 1 87 6 -5 11 -35 3 -65 1 -68 -4z"/>
    <path d="M3248 3259 c-7 -5 -11 -9 -8 -10 3 0 12 -2 20 -3 8 -2 42 -6 75 -10 114 -13 123 -16 128 -42 l4 -24 -98 0 c-59 0 -99 -4 -99 -10 0 -6 41 -10 103 -10 l103 0 13 -49 c14 -57 64 -166 80 -175 16 -10 15 -6 -25 78 -20 42 -39 97 -42 121 -2 25 -8 45 -12 45 -4 0 -10 17 -13 38 l-6 37 -53 0 c-29 0 -76 5 -105 11 -28 6 -58 7 -65 3z"/>
    <path d="M1857 3253 c-12 -21 -48 -145 -44 -149 4 -4 22 39 44 106 3 9 10 -1 17 -25 14 -45 35 -86 36 -69 0 11 -39 136 -45 142 -2 2 -5 0 -8 -5z"/>
    <path d="M3200 3248 c0 -9 5 -20 10 -23 13 -8 13 5 0 25 -8 13 -10 13 -10 -2z"/>
    <path d="M4131 3188 c-13 -40 -26 -80 -29 -88 -3 -10 -2 -12 6 -5 6 6 19 37 31 70 11 33 22 53 24 45 19 -57 41 -110 44 -106 6 5 -40 156 -47 156 -4 0 -17 -33 -29 -72z"/>
    <path d="M3280 3216 c0 -9 5 -16 10 -16 6 0 10 4 10 9 0 6 -4 13 -10 16 -5 3 -10 -1 -10 -9z"/>
    <path d="M2615 3211 c-3 -5 -1 -12 5 -16 5 -3 10 1 10 9 0 18 -6 21 -15 7z"/>
    <path d="M2650 3210 c0 -5 5 -10 10 -10 6 0 10 5 10 10 0 6 -4 10 -10 10 -5 0 -10 -4 -10 -10z"/>
    <path d="M2690 3204 c0 -8 5 -12 10 -9 6 3 10 10 10 16 0 5 -4 9 -10 9 -5 0 -10 -7 -10 -16z"/>
    <path d="M2815 3210 c-4 -6 15 -10 49 -10 31 0 56 5 56 10 0 6 -22 10 -49 10 -28 0 -53 -4 -56 -10z"/>
    <path d="M3080 3210 c0 -5 23 -10 50 -10 28 0 50 5 50 10 0 6 -22 10 -50 10 -27 0 -50 -4 -50 -10z"/>
    <path d="M3310 3210 c0 -5 5 -10 10 -10 6 0 10 5 10 10 0 6 -4 10 -10 10 -5 0 -10 -4 -10 -10z"/>
    <path d="M3350 3204 c0 -8 5 -12 10 -9 6 3 10 10 10 16 0 5 -4 9 -10 9 -5 0 -10 -7 -10 -16z"/>
    <path d="M2158 3203 c-2 -5 -1 -35 3 -68 l6 -60 1 68 c2 61 -1 80 -10 60z"/>
    <path d="M2545 3200 c-3 -5 1 -10 9 -10 9 0 16 5 16 10 0 6 -4 10 -9 10 -6 0 -13 -4 -16 -10z"/>
    <path d="M2585 3200 c3 -5 8 -10 11 -10 2 0 4 5 4 10 0 6 -5 10 -11 10 -5 0 -7 -4 -4 -10z"/>
    <path d="M3380 3200 c0 -5 5 -10 10 -10 6 0 10 5 10 10 0 6 -4 10 -10 10 -5 0 -10 -4 -10 -10z"/>
    <path d="M3420 3200 c0 -5 5 -10 10 -10 6 0 10 5 10 10 0 6 -4 10 -10 10 -5 0 -10 -4 -10 -10z"/>
    <path d="M1755 3147 c-4 -26 -5 -53 -2 -62 4 -8 2 -17 -3 -20 -5 -3 -9 -66 -9 -140 0 -89 -4 -142 -12 -157 -7 -13 -14 -30 -15 -38 -10 -62 -17 -80 -28 -80 -8 0 -13 -13 -14 -32 -1 -45 12 -60 18 -19 l5 34 105 -1 c58 -1 123 2 145 7 30 7 6 9 -96 10 l-136 1 10 45 c10 42 13 45 43 45 18 0 36 5 39 10 4 6 -7 10 -26 10 -30 0 -31 1 -25 31 3 17 6 35 6 40 0 5 43 9 95 9 57 0 95 4 95 10 0 6 -38 10 -95 10 l-95 0 0 90 c0 74 3 91 18 99 9 6 11 11 5 11 -9 0 -13 16 -12 48 1 38 2 42 9 22 7 -20 8 -21 9 -5 0 11 -6 31 -13 45 -14 24 -14 24 -21 -23z"/>
    <path d="M2134 3090 c0 -52 1 -74 3 -47 2 26 2 68 0 95 -2 26 -3 4 -3 -48z"/>
    <path d="M2188 3173 c-2 -5 0 -46 3 -93 l5 -85 2 93 c2 83 -1 106 -10 85z"/>
    <path d="M2787 3163 c-3 -5 -8 -30 -11 -57 -5 -33 -4 -46 3 -41 6 3 11 24 11 46 0 37 1 39 33 40 17 1 43 5 57 9 19 6 12 8 -32 9 -31 1 -59 -2 -61 -6z"/>
    <path d="M3090 3163 c0 -5 25 -9 55 -10 31 -2 55 2 55 7 0 6 -25 10 -55 10 -30 0 -55 -3 -55 -7z"/>
    <path d="M1844 3109 c-11 -22 -20 -66 -23 -122 l-6 -87 45 0 45 0 -5 92 c-3 58 -11 104 -21 122 l-17 30 -18 -35z m46 -125 c0 -63 0 -64 -28 -64 l-27 0 5 83 c3 45 10 88 14 96 15 23 36 -45 36 -115z"/>
    <path d="M4138 3103 c-9 -22 -17 -74 -19 -123 l-4 -85 45 0 45 0 -4 85 c-2 58 -9 97 -22 123 -11 20 -21 37 -22 37 -1 0 -10 -17 -19 -37z m42 -109 c0 -75 -6 -89 -34 -78 -19 7 -22 73 -4 141 10 42 12 44 25 28 8 -12 13 -46 13 -91z"/>
    <path d="M2555 3120 c-3 -5 1 -10 10 -10 9 0 13 5 10 10 -3 6 -8 10 -10 10 -2 0 -7 -4 -10 -10z"/>
    <path d="M2610 3120 c0 -5 7 -10 16 -10 8 0 12 5 9 10 -3 6 -10 10 -16 10 -5 0 -9 -4 -9 -10z"/>
    <path d="M2686 3115 c-4 -11 -22 -15 -70 -15 -79 0 -91 -10 -100 -83 -3 -31 -9 -62 -12 -71 -3 -9 -1 -16 4 -16 6 0 18 33 27 74 l17 74 73 7 c48 5 76 12 79 21 3 7 1 16 -3 19 -5 3 -11 -2 -15 -10z"/>
    <path d="M3292 3115 c2 -14 12 -21 33 -23 103 -8 115 -12 115 -38 0 -13 5 -24 10 -24 6 0 10 -22 10 -50 0 -27 3 -50 8 -50 4 0 7 27 7 60 0 33 -3 60 -7 60 -3 0 -8 10 -10 23 -3 20 -9 22 -72 25 -51 2 -73 8 -83 20 -13 16 -14 15 -11 -3z"/>
    <path d="M3370 3120 c0 -5 5 -10 10 -10 6 0 10 5 10 10 0 6 -4 10 -10 10 -5 0 -10 -4 -10 -10z"/>
    <path d="M3425 3120 c-3 -5 1 -10 10 -10 9 0 13 5 10 10 -3 6 -8 10 -10 10 -2 0 -7 -4 -10 -10z"/>
    <path d="M2830 3107 c0 -9 10 -12 31 -9 22 3 27 7 18 13 -21 13 -49 11 -49 -4z"/>
    <path d="M3110 3110 c-12 -8 -9 -10 13 -10 15 0 27 5 27 10 0 13 -20 13 -40 0z"/>
    <path d="M2976 3045 c-10 -32 -26 -77 -36 -100 -16 -38 -21 -41 -49 -37 -18 2 -31 0 -31 -6 0 -6 10 -12 23 -14 21 -3 22 -6 25 -145 1 -85 7 -143 12 -143 6 0 10 53 9 135 0 129 1 138 32 215 17 45 35 77 39 73 3 -4 21 -44 39 -88 33 -80 33 -81 27 -197 -4 -65 -4 -124 1 -130 4 -7 10 52 13 132 5 141 6 145 28 148 12 2 22 8 22 14 0 6 -12 8 -29 5 -31 -6 -31 -6 -100 177 -5 13 -11 4 -25 -39z"/>
    <path d="M3280 3051 c0 -5 9 -11 20 -14 24 -6 27 8 4 17 -21 8 -24 8 -24 -3z"/>
    <path d="M2146 2998 c-10 -31 -16 -62 -13 -70 2 -7 11 10 18 37 l13 50 14 -50 c8 -27 17 -45 19 -39 2 5 -5 37 -15 70 l-18 59 -18 -57z"/>
    <path d="M2580 3042 c0 -5 28 -7 63 -4 89 5 94 10 10 11 -40 1 -73 -3 -73 -7z"/>
    <path d="M3331 3046 c10 -9 79 -14 79 -5 0 5 -19 9 -42 9 -23 0 -39 -2 -37 -4z"/>
    <path d="M2580 3010 c0 -12 79 -12 135 -1 34 7 26 9 -47 10 -53 1 -88 -3 -88 -9z"/>
    <path d="M3288 3013 c23 -2 61 -2 85 0 23 2 4 4 -43 4 -47 0 -66 -2 -42 -4z"/>
    <path d="M1574 2950 c3 -40 -1 -65 -15 -92 -22 -42 -23 -48 -10 -48 5 0 15 16 21 36 l12 36 23 -56 c23 -55 44 -90 52 -83 2 2 -8 29 -22 61 -31 69 -32 80 -6 66 22 -11 108 -14 97 -3 -4 4 -19 9 -34 10 -70 9 -91 23 -102 66 -17 65 -20 66 -16 7z"/>
    <path d="M4421 2956 c-13 -52 -26 -64 -88 -81 -45 -12 -46 -13 -15 -14 18 -1 42 4 54 10 11 6 22 8 25 5 4 -4 -19 -59 -55 -128 -2 -5 1 -8 8 -8 10 0 39 56 65 125 7 17 9 14 17 -17 6 -21 14 -38 19 -38 12 0 12 0 -7 51 -10 30 -13 59 -9 92 9 59 1 61 -14 3z"/>
    <path d="M2640 2968 c-36 -5 -69 -14 -75 -20 -7 -7 -1 -9 22 -5 18 4 62 9 98 13 36 4 68 11 71 15 6 11 -28 10 -116 -3z"/>
    <path d="M3234 2971 c3 -4 34 -11 68 -14 35 -3 78 -9 96 -13 19 -4 32 -2 32 3 0 6 -40 15 -88 22 -106 13 -115 13 -108 2z"/>
    <path d="M3075 2950 c-8 -13 -1 -24 14 -19 6 3 7 10 2 18 -6 10 -10 10 -16 1z"/>
    <path d="M2895 2939 c-11 -17 1 -21 15 -4 8 9 8 15 2 15 -6 0 -14 -5 -17 -11z"/>
    <path d="M2734 2933 c-26 -3 -31 -8 -27 -24 6 -23 21 -25 30 -3 3 8 12 13 19 10 8 -3 21 -3 30 1 13 5 13 7 2 14 -7 5 -15 8 -18 7 -3 -1 -19 -3 -36 -5z"/>
    <path d="M1416 2893 c18 -43 16 -96 -6 -137 -40 -73 -73 -80 -104 -23 -14 28 -16 29 -12 7 2 -14 13 -50 25 -79 19 -49 19 -57 6 -78 -16 -24 -45 -31 -140 -36 -33 -2 26 -4 130 -4 145 0 177 1 136 8 -66 11 -85 27 -105 85 -15 44 -15 44 8 44 25 0 55 28 71 68 11 25 12 23 34 -37 14 -39 38 -78 65 -107 62 -64 77 -54 18 11 -46 50 -78 112 -95 186 -7 26 -6 26 41 23 41 -3 43 -2 15 5 -42 11 -59 26 -67 56 -4 14 -11 25 -17 25 -7 0 -8 -7 -3 -17z m-46 -332 c0 -4 -9 -7 -20 -7 -11 0 -20 1 -20 2 0 1 3 10 6 18 5 13 9 14 20 5 8 -6 14 -14 14 -18z"/>
    <path d="M2365 2898 c-2 -7 -9 -33 -15 -58 -12 -46 -60 -141 -88 -172 -10 -12 -11 -18 -3 -18 17 0 86 112 102 164 15 51 -3 45 194 67 55 6 102 13 105 16 2 2 -57 3 -131 2 -75 -1 -141 1 -148 5 -6 4 -13 1 -16 -6z m30 -18 c3 -5 1 -10 -4 -10 -6 0 -11 5 -11 10 0 6 2 10 4 10 3 0 8 -4 11 -10z"/>
    <path d="M3606 2903 c-4 -4 -69 -7 -144 -6 l-137 2 101 -14 c56 -7 120 -15 143 -17 41 -3 43 -5 59 -53 24 -71 95 -185 107 -173 3 3 -13 33 -36 67 -23 35 -51 94 -63 133 -12 38 -25 66 -30 61z"/>
    <path d="M4580 2896 c0 -25 -35 -57 -70 -67 -33 -8 -33 -8 11 -5 l47 3 -18 -52 c-27 -78 -47 -113 -97 -167 -55 -58 -42 -65 15 -8 52 50 87 119 106 206 8 38 17 77 21 87 4 10 3 17 -4 17 -6 0 -11 -6 -11 -14z"/>
    <path d="M2056 2881 c-4 -6 -16 -11 -27 -11 -11 0 -17 -4 -14 -10 3 -5 15 -10 26 -10 12 0 24 -11 30 -27 33 -83 54 -125 72 -140 23 -21 22 -18 -21 64 -17 34 -32 65 -32 68 0 3 12 2 26 -1 19 -5 25 -4 20 5 -4 6 -16 11 -27 11 -13 0 -25 11 -33 31 -8 19 -16 27 -20 20z"/>
    <path d="M2830 2735 c0 -83 4 -135 10 -135 6 0 10 52 10 135 0 83 -4 135 -10 135 -6 0 -10 -52 -10 -135z"/>
    <path d="M3150 2737 c0 -82 4 -137 10 -137 9 0 3 259 -6 269 -2 2 -4 -57 -4 -132z"/>
    <path d="M2136 2851 c6 -6 28 -14 50 -18 29 -4 36 -3 28 6 -6 6 -28 14 -50 18 -29 4 -36 3 -28 -6z"/>
    <path d="M3808 2853 c-10 -2 -18 -9 -18 -15 0 -12 70 -2 85 13 9 9 -34 11 -67 2z"/>
    <path d="M2435 2830 c-25 -5 13 -7 103 -8 78 0 142 4 142 9 0 10 -186 10 -245 -1z"/>
    <path d="M3310 2833 c0 -5 64 -9 143 -9 109 -1 127 0 77 6 -88 10 -220 12 -220 3z"/>
    <path d="M1776 2791 c-7 -10 172 -27 181 -17 4 3 4 8 2 10 -10 8 -178 15 -183 7z"/>
    <path d="M4060 2780 c0 -6 38 -10 95 -10 57 0 95 4 95 10 0 6 -38 10 -95 10 -57 0 -95 -4 -95 -10z"/>
    <path d="M2175 2770 c27 -12 35 -12 35 0 0 6 -12 10 -27 9 -25 0 -26 -1 -8 -9z"/>
    <path d="M3800 2770 c0 -13 11 -13 30 0 12 8 11 10 -7 10 -13 0 -23 -4 -23 -10z"/>
    <path d="M4580 2768 c0 -26 45 -83 69 -86 19 -3 22 -8 16 -30 -4 -15 -15 -41 -26 -58 -16 -26 -27 -33 -68 -38 -27 -3 -56 -4 -65 0 -9 3 -16 1 -16 -5 0 -8 57 -10 193 -9 105 1 172 3 147 5 -105 7 -130 14 -146 38 -17 26 -11 57 22 132 16 36 17 43 6 43 -4 0 -13 -14 -19 -31 -10 -25 -16 -30 -40 -27 -20 2 -33 12 -45 36 -20 42 -28 50 -28 30z m94 -194 c3 -9 6 -16 6 -17 0 -1 -11 -2 -24 -2 -19 0 -21 3 -12 18 13 21 22 22 30 1z"/>
    <path d="M2413 2763 c-18 -2 -33 -9 -33 -15 0 -5 7 -7 16 -4 9 3 76 6 150 6 75 0 133 4 130 8 -5 8 -206 12 -263 5z"/>
    <path d="M3315 2760 c-4 -6 52 -10 147 -9 107 1 141 4 113 9 -56 12 -253 11 -260 0z"/>
    <path d="M4050 2708 c0 -5 51 -7 113 -7 122 2 112 7 -26 11 -48 2 -87 0 -87 -4z"/>
    <path d="M1753 2704 c7 -7 219 -5 226 2 2 2 -49 4 -114 4 -65 0 -116 -3 -112 -6z"/>
    <path d="M2380 2700 c0 -5 18 -10 40 -10 22 0 40 5 40 10 0 6 -18 10 -40 10 -22 0 -40 -4 -40 -10z"/>
    <path d="M2520 2700 c0 -10 127 -6 138 4 3 3 -27 6 -66 6 -41 0 -72 -4 -72 -10z"/>
    <path d="M3340 2702 c0 -9 128 -8 137 2 3 3 -26 6 -65 6 -40 0 -72 -4 -72 -8z"/>
    <path d="M3535 2700 c3 -5 22 -10 41 -10 19 0 34 5 34 10 0 6 -18 10 -41 10 -24 0 -38 -4 -34 -10z"/>
    <path d="M2079 2595 c-52 -7 -171 -31 -265 -54 -203 -48 -267 -59 -404 -71 l-105 -9 140 3 c128 3 159 8 355 54 298 70 340 76 537 69 209 -7 294 -24 594 -123 124 -41 239 -75 255 -76 16 -1 34 -5 41 -10 6 -5 64 -16 130 -24 153 -21 279 -13 448 27 155 37 164 40 148 46 -6 2 -59 -7 -116 -21 -213 -51 -413 -58 -567 -20 -36 9 -76 17 -90 18 -14 1 -29 4 -35 7 -20 13 -412 139 -480 155 -189 44 -399 54 -586 29z"/>
    <path d="M3710 2583 c-14 -2 -90 -17 -170 -33 -134 -27 -283 -46 -420 -53 -30 -2 1 -4 70 -5 129 -2 224 10 402 50 130 29 375 32 473 6 33 -9 114 -31 180 -48 106 -29 140 -33 285 -37 91 -3 163 -3 160 0 -3 3 -46 7 -96 8 -132 3 -341 38 -444 74 -102 36 -333 56 -440 38z"/>
    <path d="M2075 2500 c-55 -10 -154 -31 -220 -48 -66 -17 -141 -34 -167 -37 -27 -4 -48 -11 -48 -16 0 -5 2 -9 5 -9 10 0 232 49 345 77 106 25 131 27 310 27 226 0 259 -6 579 -104 233 -71 391 -108 391 -92 0 4 -41 15 -92 25 -50 10 -159 40 -242 67 -226 73 -289 90 -409 111 -138 24 -316 24 -452 -1z"/>
    <path d="M3730 2493 c-14 -2 -82 -15 -153 -28 -70 -14 -154 -25 -188 -25 -35 0 -58 -4 -54 -10 8 -12 116 -4 245 20 231 43 338 45 519 10 65 -12 81 -12 61 -1 -48 28 -330 50 -430 34z"/>
    <path d="M2190 2425 c-8 -2 -48 -9 -87 -15 -40 -7 -73 -16 -73 -22 0 -5 9 -7 19 -3 108 34 319 34 466 -1 131 -31 172 -39 164 -30 -3 3 -57 20 -120 36 -89 24 -141 32 -234 35 -66 2 -127 2 -135 0z"/>
    <path d="M3002 1575 c-7 -14 -12 -32 -12 -40 0 -9 -6 -12 -15 -9 -8 4 -27 3 -42 -1 l-28 -7 25 -19 c14 -10 30 -19 35 -18 6 0 2 6 -8 13 -24 18 -4 31 24 16 18 -10 20 -18 15 -51 -4 -24 -2 -46 6 -59 17 -27 23 -25 38 9 9 22 9 34 0 50 -6 12 -7 21 -3 21 4 0 -3 9 -15 20 -23 22 -26 29 -16 54 11 28 24 17 24 -19 0 -38 2 -40 31 -25 11 6 24 8 31 4 7 -4 2 -12 -13 -20 -14 -8 -18 -13 -9 -13 8 0 26 8 39 18 l24 18 -27 7 c-15 4 -37 4 -48 0 -13 -4 -18 -2 -14 5 6 9 -18 71 -28 71 -1 0 -8 -11 -14 -25z m30 -122 c9 -39 -13 -72 -25 -39 -7 17 2 56 13 56 4 0 10 -8 12 -17z"/>
    <path d="M2706 1544 c-22 -21 -20 -41 5 -55 18 -9 30 -7 65 10 l42 22 63 -41 c64 -41 83 -47 94 -30 3 6 -4 10 -17 10 -13 0 -41 12 -63 27 -35 24 -37 27 -19 35 18 8 18 8 -1 5 -11 -2 -37 5 -57 15 -46 22 -91 23 -112 2z m99 -15 c7 -8 1 -10 -23 -7 -24 4 -32 1 -28 -9 4 -9 -3 -13 -19 -13 -27 0 -33 18 -12 39 13 14 65 7 82 -10z"/>
    <path d="M3226 1545 c-11 -8 -31 -15 -45 -15 -18 0 -22 -3 -13 -9 17 -10 -55 -61 -86 -61 -12 0 -22 -4 -22 -10 0 -21 40 -9 96 29 58 39 59 39 94 24 63 -28 78 -28 91 1 9 20 9 29 -1 41 -16 19 -88 19 -114 0z m88 -1 c27 -10 20 -44 -9 -44 -16 0 -23 4 -19 13 4 10 -4 13 -28 10 -31 -4 -32 -3 -14 11 21 17 44 20 70 10z"/>
    <path d="M2350 1519 c68 -10 307 -6 317 5 4 3 -81 5 -188 5 -158 -1 -182 -3 -129 -10z"/>
    <path d="M3370 1523 c0 -10 328 -9 337 0 3 4 -71 7 -165 7 -95 0 -172 -3 -172 -7z"/>
  </g>
  <text style="fill: rgb(196, 171, 121); font-family: Charmonman; font-size: 44px; white-space: pre;" x="159.83" y="424.818">พจนานุกรมจีน-ไทย</text>
</svg>